# xmcd
#
# Track frame offsets:
#	182
#	13017
#	24612
#	37365
#	50477
#	63007
#	77610
#	90395
#	102975
#	117510
#	131587
#	145317
#	159882
#	174615
#	187665
#	202632
#	215705
#	229125
#
# Disc length: 3225 seconds
#
# Revision: 1
# Processed by: cddbd v1.5.2PL0 Copyright (c) Steve Scherf et al.
# Submitted via: audiograbber 1.83.01
#
DISCID=ed0c9712
DTITLE=Sampler Blues - An early Chess blues anthology CD1
DYEAR=1949
DGENRE=Blues
TTITLE0=Sunnyland Slim - Johnson machine gun
TTITLE1=Sunnyland Slim - Flyright, little girl
TTITLE2=Mae, Ethel and Robert Nigthawk - Down the line
TTITLE3=Mae, Ethel and Robert Nigthawk  - Handsome lover
TTITLE4=Foster, Leroy - Shady grove blues
TTITLE5=Forest City Joe - Memory of sonny boy
TTITLE6=Forest City Joe - Sawdust bottom
TTITLE7=Forest City Joe -  Lonesome day blues
TTITLE8=Baby Face Leroy - My head can't rest anymore
TTITLE9=Baby Face Leroy - Take a little walk with me
TTITLE10=Nighthawk, Robert - Sweet black angel
TTITLE11=Nighthawk, Robert - Anna Lee
TTITLE12=Nighthawk, Robert - Return mail blues
TTITLE13=Jones, Little Johnny - Big town playboy
TTITLE14=Jones, Little Johnny - Shelby County blues
TTITLE15=Nighthawk, Robert - Six-three-O
TTITLE16=Nighthawk, Robert - Prison bound
TTITLE17=Nighthawk, Robert - Jackson Town gal
EXTD=
EXTT0=
EXTT1=
EXTT2=
EXTT3=
EXTT4=
EXTT5=
EXTT6=
EXTT7=
EXTT8=
EXTT9=
EXTT10=
EXTT11=
EXTT12=
EXTT13=
EXTT14=
EXTT15=
EXTT16=
EXTT17=
PLAYORDER=
